<?xml version="1.0" encoding="utf-8"?>
<!-- Generator: Adobe Illustrator 27.7.0, SVG Export Plug-In . SVG Version: 6.00 Build 0)  -->
<svg version="1.1" baseProfile="basic" id="Capa_1" xmlns="http://www.w3.org/2000/svg" xmlns:xlink="http://www.w3.org/1999/xlink"
	 x="0px" y="0px" viewBox="0 0 340.2 283.5" xml:space="preserve">
<style type="text/css">
	.st0{fill:#FBC252;}
	.st1{fill:#A4BB98;}
	.st2{fill:#F7DA9E;}
	.st3{fill:#D1DDCC;}
	.st4{fill:#CDD9C6;}
	.st5{fill:#D5E0D0;}
	.st6{fill:#D2DDCC;}
	.st7{fill:#FFFFFF;}
	.st8{fill:#F0ECCF;}
	.st9{fill:#F0ECCE;}
	.st10{fill:#D1DDCB;}
	.st11{fill:#F7D589;}
	.st12{fill:#F7D382;}
	.st13{fill:#F4DDA2;}
	.st14{fill:#FBC253;}
	.st15{fill:#FBC55B;}
</style>
<path class="st0" d="M217.2,185.3c0,4.1,0,8.2-0.1,12.3c0,4.2-3.6,7.9-7.8,7.9c-25.3,0-50.7,0-76,0c-3.7,0-7.1-3.1-7.6-7
	c-0.3-4.4,0-8.8-0.1-13.2c-0.5-1.2-0.4-2.5-0.3-3.8c0-2.7,0-5.4,0-8.1c0-1.4,0.6-2.6,1.2-3.8c4-7.5,10.3-12.4,17.9-15.7
	c10.5-4.7,21.5-5.9,32.8-5.2c11.2,0.8,21.7,3.9,30.8,10.8c4,3,6.7,6.9,9,11.3c0.6,1.1,0.8,2.3,0.8,3.6c0,2.3,0,4.5,0,6.8
	c0,0.2,0,0.4,0,0.6C217.6,183,217.9,184.2,217.2,185.3z"/>
<path class="st1" d="M125.6,181.6c0,1.2,0,2.4,0,3.6c0,0.3-0.1,0.3-0.3,0.1c-4.8,0-9.5,0-14.3,0c-7.9-0.1-15.3-6.9-15.9-14.7
	c-0.2-1.4-0.2-2.7,0-4.1c1-6.9,4.8-11.6,11.3-13.9c16.5-6,33.1-12,49.6-17.9c4.3-1.6,8.6-3.1,13-4.6c1-0.4,1.4-0.8,1.4-2
	c-0.1-2.5,0-4.9,0-7.4c0-2.3,0.3-2.7,2.6-2.8c5.9-0.3,10.5-2.8,13.1-8.3c3.4-7,0.2-15.7-7-18.9c-7.1-3.3-15.8,0-18.7,7.3
	c-1.1,2.7-2.9,4.3-5.5,5.3c-1.2,0.4-2.3,0.6-3-0.7c-0.6-1-0.1-2.2,1.4-2.7c2-0.8,3-2.2,3.9-4c2.8-5.8,7.5-9.2,14-10
	c1.6-0.2,3.2-0.2,4.8,0c8.4,1.2,15,8.3,15.4,16.7c0.4,8.8-5,16.2-13.2,18.5c-1.2,0.3-2.4,0.4-3.6,0.6c-0.4,2.6-0.3,5.1,0,7.7
	c5.3,2.4,10.9,4.2,16.3,6.2c15.3,5.7,30.7,11.3,46,17.1c6.4,2.4,10.2,7.1,11.1,13.9c0.2,1.4,0.2,2.7,0,4.1
	c-0.8,8.1-8.1,14.7-16.2,14.7c-4.8,0-9.6,0-14.4,0c0-1.2,0-2.5,0-3.7c0.7-0.7,1.6-0.5,2.5-0.5c4.3-0.1,8.6,0.2,12.9-0.1
	c7-1.3,11.4-6.4,11-13.1c-0.3-5.3-3-9.2-8-11.1c-10.8-4.1-21.6-8-32.5-12.1c-9.5-3.5-19-7-28.5-10.6c-1.5-0.6-2.9-0.6-4.4-0.1
	c-20.6,7.5-41.2,15.1-61.8,22.5c-7.9,2.8-10.4,10.2-8.4,15.9c1.7,5,5.4,7.6,10.4,8.6c3.6,0.3,7.3,0.1,11,0.1c1.3,0,2.6-0.1,3.8,0.1
	C125.2,181.3,125.4,181.4,125.6,181.6z"/>
<path class="st2" d="M125.3,185.3c0.1,0,0.2-0.1,0.3-0.1c0.2,4.5,0.1,8.9,0,13.4c-0.5-0.6-0.3-1.3-0.3-1.9
	C125.3,192.8,125.3,189.1,125.3,185.3z"/>
<path class="st3" d="M174.3,129.2c-0.6-2.6-0.6-5.1,0-7.7C174.4,124.1,174.3,126.6,174.3,129.2z"/>
<path class="st4" d="M175.8,85.7c-1.6,0-3.2,0-4.8,0C172.6,85.1,174.2,85.1,175.8,85.7z"/>
<path class="st5" d="M247.7,170.5c0-1.4,0-2.7,0-4.1C248.3,167.8,248.3,169.2,247.7,170.5z"/>
<path class="st6" d="M95,166.4c0,1.4,0,2.7,0,4.1C94.5,169.2,94.5,167.8,95,166.4z"/>
<path class="st7" d="M109.8,181.3c-5.7-0.8-10.4-5.6-11-11.3c-0.6-6.1,2.7-11.6,8.6-13.7c7.9-2.9,15.9-5.8,23.8-8.7
	c13.1-4.8,26.3-9.5,39.4-14.3c1.1-0.4,2.1-0.4,3.2,0c20.6,7.7,41.2,15.3,61.9,23c5.6,2.1,9,7.7,8.4,13.7c-0.6,5.6-5.4,10.5-11,11.3
	c-5.3,0.2-10.5,0.3-15.8-0.1c0-1.1-0.2-2.2,0-3.3c0.8-5.7-2-10.1-5.5-14.1c-6.3-7-14.6-10.6-23.5-12.8c-6.7-1.7-13.4-2.2-20.3-1.8
	c-11.7,0.6-22.7,3.3-32.4,10.5c-4,3-6.9,6.9-9.2,11.3c-0.3,0.7-0.6,1.3-0.6,2.1c-0.3,2.1,0,4.2-0.1,6.3c0,0.6,0.2,1.3-0.2,1.9
	C120.1,181.4,114.9,181.5,109.8,181.3z"/>
<path class="st8" d="M191.3,186.3c0,3.3-2.1,5.3-5.5,5.2c-3,0-5.2-2.4-5.2-5.4c0-3,2.7-5.8,5.6-5.6
	C189.3,180.8,191.6,183.2,191.3,186.3z"/>
<path class="st8" d="M192.8,180.9c1.6-0.4,2.6,0.3,3.4,1.7c0.8,1.5,1.8,2.9,2.9,4.6c0.4-1.9,0.2-3.5,0.2-5c0-0.8,0-1.4,1.1-1.4
	c1.1,0,1.2,0.5,1.2,1.4c0,2.6,0,5.1,0,7.7c0,0.6,0.4,1.5-0.7,1.6c-0.8,0.1-1.7,0.2-2.2-0.8c-1.1-1.8-2.2-3.5-3.7-5.2
	c0,1.3,0,2.6,0,3.9c0,2.2,0,2.2-2.2,2.1C192.5,187.9,192.5,184.4,192.8,180.9z"/>
<path class="st9" d="M180.2,167.9c0-1.3,0-2.7,0-4c0-0.4-0.1-0.8,0.5-1.1c1.4-0.6,5.1,0.2,6.4,1.4c1.6,1.5,2.1,3.7,1.3,5.7
	c-1,2.7-5.2,4.5-7.7,3.4c-0.6-0.3-0.5-0.8-0.5-1.2C180.2,170.7,180.2,169.3,180.2,167.9z"/>
<path class="st9" d="M162.5,167.2c0,0.6,0,1.1,0,1.7c0,3.8-1.9,5.4-5.6,4.6c-1.8-0.4-2.6-1.7-2.7-3.3c-0.2-2.1-0.1-4.3-0.1-6.4
	c0-1,0.7-1,1.4-1c0.7,0,1.2,0.1,1.2,1c0,1.8,0,3.7,0,5.5c0,1.1,0.4,1.9,1.6,2c1.3,0,1.7-0.7,1.7-1.9c0-1.8,0-3.6,0-5.3
	c0-1,0.4-1.3,1.3-1.3c1,0,1.3,0.4,1.3,1.3C162.5,165.1,162.5,166.1,162.5,167.2z"/>
<path class="st8" d="M158,191.4c-1.6,0.3-2.7,0.3-3.1-1.3c-0.1-0.6-0.5-0.8-1.1-0.7c-1.5,0.2-3.3-0.8-4,1.7
	c-0.2,0.9-1.6,0.4-2.6,0.4c1.4-3.4,2.7-6.6,3.9-9.8c0.3-0.7,0.8-0.8,1.4-0.8c0.7,0,1.3,0.2,1.6,0.9
	C155.4,184.9,156.7,188.1,158,191.4z"/>
<path class="st8" d="M173.3,180.8c1.8-0.4,2.4,0.3,2.2,2.1c-0.2,2.4-0.1,4.8,0,7.2c0,0.8-0.1,1.4-1.2,1.4c-1.1,0-1.2-0.6-1.1-1.4
	c0-0.4,0-0.7,0-1.1c0.2-1.6-0.6-1.9-2-1.9c-1.6-0.1-1.7,0.7-1.6,1.9c0.2,1.7,0,3-2.2,2.5c-0.4-3.5-0.4-7.1,0-10.6
	c0.7,0.1,1.6-0.3,2.2,0.3c0.2,0.6,0.1,1.2,0.1,1.8c0,2.2,0.2,2.3,2.4,2.1c0.7-0.1,0.9-0.3,0.9-1C173.1,183,172.8,181.9,173.3,180.8z
	"/>
<path class="st9" d="M161.8,191.6c-0.9,0.1-1.8-0.1-2.7-0.5c-0.6-0.3-1.3-0.6-0.7-1.5c0.4-0.7,0.8-1.3,1.7-0.7
	c0.5,0.3,1.1,0.5,1.7,0.5c0.6,0,1.2,0,1.4-0.7c0.2-0.7-0.2-1-0.8-1.3c-0.5-0.3-1.1-0.5-1.6-0.8c-1.5-0.9-2.2-2.2-1.8-3.5
	c0.4-1.5,1.8-2.5,3.5-2.5c0.7,0,1.4,0.3,2.1,0.5c0.6,0.2,1.1,0.4,0.7,1.2c-0.3,0.6-0.4,1.4-1.4,0.9c-0.3-0.1-0.6-0.2-0.9-0.3
	c-0.7-0.2-1.3-0.1-1.6,0.5c-0.3,0.8,0.3,1.1,0.9,1.4c0.6,0.3,1.3,0.6,2,1c1.4,0.8,1.9,2.1,1.5,3.6c-0.4,1.5-1.6,2.1-3.1,2.1
	C162.4,191.6,162.1,191.6,161.8,191.6z"/>
<path class="st9" d="M167.3,173.5c-0.9,0.1-1.8-0.1-2.7-0.6c-0.7-0.3-1.1-0.7-0.6-1.6c0.4-0.7,0.7-1.1,1.6-0.6
	c1,0.6,2.5,1.2,3.1-0.1c0.6-1.4-1.2-1.5-2.1-2c-2.3-1.4-2.8-3.5-1.1-5.1c1.1-1.1,3.9-1.2,5.2-0.3c0.5,0.3,0.5,0.7,0.2,1.1
	c-0.2,0.4-0.3,1-1,0.9c-0.3,0-0.6-0.2-0.9-0.3c-0.7-0.2-1.6-0.5-1.9,0.4c-0.5,1.1,0.6,1.2,1.3,1.6c0.2,0.1,0.3,0.2,0.5,0.2
	c2.2,1.1,3,2.3,2.5,4.1C171,172.8,169.7,173.5,167.3,173.5z"/>
<path class="st8" d="M172.9,162.8c1.6,0,3.2,0,4.8,0c0.8,0,1.1,0.2,1.1,1c0,0.7-0.2,1.2-1,1.1c-0.5,0-1,0-1.5,0
	c-0.7,0-1.2,0.1-1.2,1c0,0.9,0.4,1.2,1.2,1.2c0.4,0,0.7,0,1.1,0c0.7,0,1.3,0,1.3,1c0,0.9-0.6,0.9-1.2,0.9c-0.4,0-0.7,0-1.1,0
	c-0.8,0-1.3,0.1-1.3,1c0,1.1,0.6,1.2,1.4,1.2c0.4,0,0.9,0,1.3,0c0.8,0,1,0.4,1,1.1c0,0.8-0.4,1.1-1.1,1.1c-1.6,0-3.2,0-4.8,0
	C172.5,169.9,172.5,166.3,172.9,162.8z"/>
<path class="st8" d="M141.2,180.9c1.5,0,3.1,0,4.6,0c0.7,0,1.3,0,1.3,1c0,0.9-0.4,1.1-1.2,1.2c-0.9,0.1-2.3-0.8-2.5,0.9
	c-0.2,2,1.5,1,2.4,1.2c0.7,0.1,1,0.4,1,1c0,0.7-0.4,1-1,0.9c-2-0.3-2.6,0.6-2.3,2.4c0.3,1.9-0.6,2.2-2.2,1.9
	C140.8,187.9,140.9,184.4,141.2,180.9z"/>
<path class="st8" d="M177.3,180.8c1.8-0.4,2.4,0.3,2.2,2.1c-0.1,2.1-0.1,4.3,0,6.4c0.1,1.8-0.4,2.5-2.2,2.1
	C177,187.9,177,184.4,177.3,180.8z"/>
<path class="st10" d="M217.2,181.2c5.3,0,10.5,0,15.8,0.1c-0.5,0.5-1.2,0.3-1.7,0.3c-4.7,0-9.4,0-14.1,0
	C217.2,181.4,217.2,181.3,217.2,181.2z"/>
<path class="st11" d="M173.3,180.8c0,0.8,0,1.6,0,2.4c0,2,0,2-2,2.1c-1.3,0.1-1.9-0.3-1.8-1.7c0.1-0.8,0.1-1.6,0.1-2.4
	c0.6,0.7,0.3,1.5,0.3,2.3c-0.1,1.2,0.5,1.4,1.5,1.4c1.1,0,1.5-0.3,1.5-1.5C172.9,182.6,172.5,181.6,173.3,180.8z"/>
<path class="st12" d="M167.4,180.8c0,3.5,0,7.1,0,10.6c-0.6-0.4-0.4-1-0.4-1.5c0-2.6,0-5.1,0-7.7C167,181.8,166.8,181.2,167.4,180.8
	z"/>
<path class="st12" d="M177.3,180.8c0,3.5,0,7.1,0,10.6c-0.6-0.4-0.4-1-0.4-1.5c0-2.6,0-5.1,0-7.7
	C176.9,181.8,176.7,181.2,177.3,180.8z"/>
<path class="st13" d="M141.2,180.9c0,3.5,0,7.1,0,10.6c-0.3-0.2-0.4-0.4-0.4-0.8c0-3,0-6.1,0-9.1C140.8,181.3,140.9,181,141.2,180.9
	z"/>
<path class="st13" d="M192.8,180.9c0,3.5,0,7.1,0,10.6c-0.6-0.4-0.4-1-0.4-1.5c0-2.5,0-5.1,0-7.7
	C192.4,181.8,192.2,181.2,192.8,180.9z"/>
<path class="st12" d="M172.9,162.8c0,3.5,0,7.1,0,10.6c-0.3-0.2-0.4-0.4-0.4-0.8c0-3,0-6.1,0-9.1
	C172.5,163.2,172.6,162.9,172.9,162.8z"/>
<path class="st2" d="M125.3,181.2c0-2.1,0-4.2,0-6.4c0-0.6-0.1-1.2,0.3-1.7c0,2.8,0,5.7-0.1,8.5c-0.1,0-0.2,0-0.3-0.1
	c-0.1-0.1-0.1-0.2-0.1-0.2C125.2,181.2,125.2,181.2,125.3,181.2z"/>
<path class="st10" d="M125.3,181.2c0,0.1,0,0.2,0,0.4c-4.8,0-9.5,0-14.3,0c-0.4,0-0.9,0-1.2-0.3C115,181.2,120.1,181.2,125.3,181.2z
	"/>
<path class="st14" d="M188.7,186.1c0,2-1,3.2-2.7,3.2c-1.7,0-2.8-1.3-2.8-3.2c0-1.8,1.1-3.1,2.7-3.1
	C187.6,183,188.7,184.2,188.7,186.1z"/>
<path class="st14" d="M182.8,168c0-0.5,0-1,0-1.5c0.1-0.5-0.3-1.2,0.4-1.5c0.6-0.3,1.2,0.1,1.7,0.4c1.8,1.3,1.6,4.4-0.3,5.4
	c-1.1,0.6-1.9,0.5-1.8-1.1C182.8,169.2,182.8,168.6,182.8,168z"/>
<path class="st15" d="M152.6,184.6c0.5,0.8,1.3,1.5,0.7,2.4c-0.1,0.2-1.2,0.2-1.4,0C151.3,186.1,152.3,185.5,152.6,184.6z"/>
</svg>
